# xmcd
#
# Track frame offsets:
#	150
#	19990
#	39969
#	59591
#	76627
#	94119
#	111749
#	127237
#	145847
#	163809
#	186449
#	204418
#	223688
#	245666
#	263611
#	283149
#
# Disc length: 4041 seconds
#
# Revision: 0
# Processed by: cddbd v1.5.1PL0 Copyright (c) Steve Scherf et al.
# Submitted via: dBpowerAMP V4.0
#
DISCID=f70fc710
DTITLE=SIMPLY RED - GREATEST HITS
DYEAR=1900
DGENRE=POP
TTITLE0=Holding Back The Years
TTITLE1=Money's Too Tight To Mention
TTITLE2=The Right Thing
TTITLE3=It's Only Love
TTITLE4=A New Flame
TTITLE5=You've Got It
TTITLE6=If You don't Know Me By Now
TTITLE7=Stars
TTITLE8=Something Got Me Started
TTITLE9=Thrill Me
TTITLE10=Your Mirror
TTITLE11=For Your Babies
TTITLE12=So Beautifull
TTITLE13=Angel
TTITLE14=Fairground
TTITLE15=Remembering The First Time
EXTD=
EXTT0=
EXTT1=
EXTT2=
EXTT3=
EXTT4=
EXTT5=
EXTT6=
EXTT7=
EXTT8=
EXTT9=
EXTT10=
EXTT11=
EXTT12=
EXTT13=
EXTT14=
EXTT15=
PLAYORDER=
